<mxfile host="app.diagrams.net" modified="2023-10-17T09:56:36.845Z" agent="Mozilla/5.0 (Macintosh; Intel Mac OS X 10_15_7) AppleWebKit/537.36 (KHTML, like Gecko) Chrome/116.0.0.0 Safari/537.36" version="22.0.4" etag="qTOWkm-fqa4pxN3SLQwQ" type="github">
  <diagram name="第 1 页" id="KwEkuABC4V0EP4xVtvm4">
    <mxGraphModel>
      <root>
        <mxCell id="0" />
        <mxCell id="1" parent="0" />
      </root>
    </mxGraphModel>
  </diagram>
</mxfile>
